<?xml version="1.0" encoding="UTF-8" standalone="no"?>
<!-- Created with Inkscape (http://www.inkscape.org/) -->
<svg id="svg5974" xmlns:rdf="http://www.w3.org/1999/02/22-rdf-syntax-ns#" xmlns="http://www.w3.org/2000/svg" height="68" width="33.174" version="1.1" xmlns:cc="http://creativecommons.org/ns#" xmlns:dc="http://purl.org/dc/elements/1.1/">
 <metadata id="metadata5980">
  <rdf:RDF>
   <cc:Work rdf:about="">
    <dc:format>image/svg+xml</dc:format>
    <dc:type rdf:resource="http://purl.org/dc/dcmitype/StillImage"/>
    <dc:title/>
   </cc:Work>
  </rdf:RDF>
 </metadata>
 <path id="path6264" d="M0,33.974c0.0624-21.014,15.822-33.955,33.174-33.974v68c-18.948,0.076-33.135-14.153-33.174-34.026zm25.069,7.9621c-3.0097-3.0047-4.5225-4.5297-7.9073-7.9611,3.8351-3.6147,3.6117-3.3845,8.0029-7.8033l-1.463-1.641c-4.9448,4.6626-4.5968,4.3537-9.8543,9.4441,4.7061,4.765,6.3691,6.478,9.5873,9.6291z" fill="#ef5037"/>
 <path id="path3018" d="M0,33.974c0.0624-21.014,15.822-33.955,33.174-33.974v68c-18.948,0.076-33.135-14.153-33.174-34.026zm25.069,7.9621c-3.0097-3.0047-4.5225-4.5297-7.9073-7.9611,3.8351-3.6147,3.6117-3.3845,8.0029-7.8033l-1.463-1.641c-4.9448,4.6626-4.5968,4.3537-9.8543,9.4441,4.7061,4.765,6.3691,6.478,9.5873,9.6291z" fill-opacity="0.94117647" fill="#e5656f"/>
</svg>
